<svg width="22" height="13" viewBox="0 0 22 13" fill="none" xmlns="http://www.w3.org/2000/svg">
<path d="M19.6118 1.63385L10.9991 10.4007L2.38645 1.63385C2.23257 1.47688 2.026 1.38901 1.81089 1.38901C1.59578 1.38901 1.38921 1.47688 1.23533 1.63385C1.16083 1.71008 1.10163 1.80107 1.06122 1.90149C1.02081 2.00191 1 2.10974 1 2.21867C1 2.32759 1.02081 2.43542 1.06122 2.53584C1.10163 2.63626 1.16083 2.72725 1.23533 2.80348L10.3977 12.1318C10.5586 12.2955 10.7744 12.3872 10.9991 12.3872C11.2238 12.3872 11.4396 12.2955 11.6005 12.1318L20.7629 2.80528C20.8379 2.72899 20.8976 2.63778 20.9383 2.53703C20.979 2.43627 21 2.32802 21 2.21867C21 2.10931 20.979 2.00106 20.9383 1.9003C20.8976 1.79955 20.8379 1.70834 20.7629 1.63205C20.609 1.47508 20.4025 1.38721 20.1873 1.38721C19.9722 1.38721 19.7657 1.47508 19.6118 1.63205V1.63385Z" fill="black" stroke="black"/>
</svg>
