<svg width="55" height="60" viewBox="0 0 55 60" fill="none" xmlns="http://www.w3.org/2000/svg">
<path d="M30.5308 0.271934C27.307 -0.156846 23.9986 0.0125483 20.7536 0.166062C18.5674 0.377806 18.5885 3.99862 20.7589 4.22624C23.8609 4.4274 27.0053 4.45916 30.1073 4.22095C32.0765 4.04097 32.3783 0.870109 30.5308 0.271934Z" fill="white"/>
<path d="M28.4408 8.70834C21.9562 7.90371 15.1804 9.75118 10.0033 13.7425C4.91618 17.5698 1.43302 23.4298 0.369012 29.7027C-0.896151 36.8067 1.14717 44.3924 5.70493 49.9771C10.4268 55.8424 17.8854 59.4473 25.4393 59.3203C32.0987 59.4421 38.7262 56.647 43.3951 51.9199C44.5332 50.9035 44.1098 48.8919 42.6752 48.4049C41.1454 47.8015 40.0866 49.3948 38.9962 50.173C31.744 56.5782 19.9552 56.7317 12.4383 50.6759C7.06008 46.5204 3.86277 39.6811 4.32331 32.8736C4.58798 24.0915 11.0461 15.9923 19.4841 13.6314C25.8893 11.7839 33.2103 13.0438 38.4245 17.2681C39.4408 18.0462 40.3249 19.0149 41.4789 19.6025C43.2363 20.0631 44.9673 17.7498 43.6386 16.3152C39.7479 12.0274 34.142 9.44415 28.4408 8.70834Z" fill="white"/>
<path d="M26.2704 17.1775C25.1006 16.6534 23.5813 17.3945 23.3907 18.6967C22.9567 23.5086 23.6819 28.3893 23.1314 33.1906C19.9129 36.6949 16.2921 39.8287 13.1424 43.386C11.692 45.1276 14.2911 47.695 16.0221 46.2657C19.2565 43.3278 22.2156 40.0881 25.3705 37.0602C26.3393 36.0227 27.7526 35.0539 27.5832 33.4553C27.6044 29.0192 27.5938 24.5832 27.5885 20.1472C27.615 19.0302 27.4509 17.6645 26.2704 17.1775Z" fill="white"/>
<path d="M31.9311 25.0751C32.1111 23.5293 34.3079 22.91 35.3507 24.0111C36.0124 24.9957 36.0177 26.2449 36.4095 27.3354C36.9071 29.3099 38.5322 30.9456 40.459 31.5385C42.8306 31.8985 45.2391 31.7185 47.6265 31.7185C46.7213 30.7339 45.7685 29.7864 44.9797 28.7065C44.0798 27.5578 45.1068 25.4086 46.6049 25.6044C47.9547 25.5991 48.7699 26.8961 49.7069 27.6848C51.3797 29.5376 53.4495 31.0568 54.8258 33.1637C55.4928 34.6512 54.0953 35.8528 53.1689 36.8109C51.3109 38.4837 49.7281 40.4476 47.7483 41.9828C46.6313 42.835 44.7521 42.1522 44.6463 40.6964C44.2492 38.7008 46.4143 37.7797 47.2136 36.2445C44.0322 35.6834 40.5967 36.5039 37.6111 35.0005C34.0327 33.1795 31.4388 29.1617 31.9311 25.0751Z" fill="#AFBE59"/>
</svg>
