<svg width="55" height="60" viewBox="0 0 55 60" fill="none" xmlns="http://www.w3.org/2000/svg">
<path d="M24.4692 0.271934C27.693 -0.156846 31.0014 0.0125483 34.2464 0.166062C36.4326 0.377806 36.4115 3.99862 34.2411 4.22624C31.1391 4.4274 27.9947 4.45916 24.8927 4.22095C22.9235 4.04097 22.6217 0.870109 24.4692 0.271934Z" fill="white"/>
<path d="M26.5592 8.70834C33.0438 7.90371 39.8196 9.75118 44.9967 13.7425C50.0838 17.5698 53.567 23.4298 54.631 29.7027C55.8962 36.8067 53.8528 44.3924 49.2951 49.9771C44.5732 55.8424 37.1146 59.4473 29.5607 59.3203C22.9014 59.4421 16.2738 56.647 11.6049 51.9199C10.4668 50.9035 10.8902 48.8919 12.3248 48.4049C13.8546 47.8015 14.9134 49.3948 16.0038 50.173C23.256 56.5782 35.0448 56.7317 42.5617 50.6759C47.9399 46.5204 51.1372 39.6811 50.6767 32.8736C50.412 24.0915 43.9539 15.9923 35.5159 13.6314C29.1107 11.7839 21.7897 13.0438 16.5755 17.2681C15.5592 18.0462 14.6751 19.0149 13.5211 19.6025C11.7637 20.0631 10.0327 17.7498 11.3614 16.3152C15.2521 12.0274 20.858 9.44415 26.5592 8.70834Z" fill="white"/>
<path d="M28.73 17.1775C29.8999 16.6534 31.4192 17.3945 31.6098 18.6967C32.0438 23.5086 31.3186 28.3893 31.8691 33.1906C35.0876 36.6949 38.7084 39.8287 41.8581 43.386C43.3085 45.1276 40.7094 47.695 38.9784 46.2657C35.744 43.3278 32.7849 40.0881 29.63 37.0602C28.6612 36.0227 27.2479 35.0539 27.4172 33.4553C27.3961 29.0192 27.4067 24.5832 27.412 20.1472C27.3855 19.0302 27.5496 17.6645 28.73 17.1775Z" fill="white"/>
<path d="M0.0600112 25.0751C0.239992 23.5293 2.43682 22.91 3.47966 24.0111C4.14135 24.9957 4.14664 26.2449 4.53837 27.3354C5.03596 29.3099 6.66109 30.9456 8.58795 31.5385C10.9595 31.8985 13.368 31.7185 15.7554 31.7185C14.8502 30.7339 13.8974 29.7864 13.1087 28.7065C12.2087 27.5578 13.2357 25.4086 14.7338 25.6044C16.0836 25.5991 16.8988 26.8961 17.8358 27.6848C19.5086 29.5376 21.5784 31.0568 22.9547 33.1637C23.6217 34.6512 22.2242 35.8528 21.2978 36.8109C19.4398 38.4837 17.857 40.4476 15.8772 41.9828C14.7602 42.835 12.881 42.1522 12.7752 40.6964C12.3781 38.7008 14.5432 37.7797 15.3425 36.2445C12.1611 35.6834 8.72558 36.5039 5.74001 35.0005C2.16156 33.1795 -0.432291 29.1617 0.0600112 25.0751Z" fill="#9EAB53"/>
</svg>
