<svg width="71" height="60" viewBox="0 0 71 60" fill="none" xmlns="http://www.w3.org/2000/svg">
<path d="M28.9129 0.894841C33.8933 -0.498925 39.2876 -0.246035 44.1416 1.52419C49.7629 3.52432 54.614 7.61078 57.5195 12.8238C60.1289 17.4476 61.2641 22.9192 60.5888 28.1954C59.7956 27.3534 58.9363 26.5832 58.0195 25.882C58.0454 22.4192 57.4476 18.9276 55.9532 15.7837C53.5449 10.473 48.9639 6.21414 43.5064 4.16516C39.963 2.82887 36.0832 2.33171 32.3299 2.91796C26.9127 3.68812 21.7972 6.49577 18.3025 10.7144C14.9602 14.6716 13.0031 19.8328 13.0807 25.0257C12.1783 25.8907 11.2644 26.7413 10.4138 27.6551C9.83036 21.3933 11.5978 14.9187 15.4632 9.93564C18.7652 5.52732 23.6077 2.33459 28.9129 0.894841Z" fill="white"/>
<path d="M34.1173 5.53222C34.9191 4.99196 36.0773 5.69028 35.9767 6.65011C35.948 7.52373 36.4078 8.75082 35.4939 9.31407C34.8013 9.8687 33.6345 9.25372 33.6604 8.3801C33.7006 7.44614 33.2149 6.19031 34.1173 5.53222Z" fill="white"/>
<path d="M43.6153 7.56199C44.2159 7.22289 45.1183 7.38382 45.3913 8.07352C45.7764 8.67126 45.262 9.31785 45.0206 9.86099C44.6499 10.4501 44.3912 11.3841 43.5463 11.3869C42.7273 11.5306 42.0088 10.5995 42.3364 9.84662C42.6928 9.05347 43.0405 8.22296 43.6153 7.56199Z" fill="white"/>
<path d="M24.9066 8.38721C25.444 8.11421 26.2171 8.18893 26.5274 8.75793C26.9901 9.46487 27.5505 10.1574 27.7632 10.988C27.7287 12.0311 26.2458 12.6432 25.6107 11.7294C24.987 10.7983 23.5616 9.33555 24.9066 8.38721Z" fill="white"/>
<path d="M33.712 14.1278C34.304 13.4582 34.8903 12.2598 35.9823 12.7196C36.8416 13.7398 37.6664 14.8146 38.3562 15.9555C38.5976 16.8664 37.6032 17.3923 36.833 17.3693C36.833 19.0821 36.8215 20.7948 36.8129 22.5105C37.2784 22.8783 37.7153 23.2806 38.1234 23.7117C39.4252 23.7203 40.7271 23.7088 42.0261 23.7232C42.1267 23.295 42.2531 22.8754 42.3911 22.4587C42.917 22.2691 43.5521 22.1082 44.0062 22.5478C44.9086 23.3008 45.9892 23.8812 46.7019 24.8296C46.8829 25.548 46.2449 26.0308 45.7391 26.4015C45.0006 26.9274 44.3482 27.5913 43.5263 27.9907C42.9227 28.235 42.4485 27.7263 42.0951 27.3211C42.0979 27.1257 42.1094 26.732 42.1152 26.5366C40.7846 26.5711 39.4482 26.4964 38.1176 26.5682C37.4595 27.3355 36.606 28.0884 35.5168 28.0079C33.6861 28.0913 32.1629 26.0797 32.7377 24.3439C32.9245 23.6427 33.4677 23.1427 33.9534 22.6427C33.9649 20.815 33.9677 18.9873 33.9936 17.1596C33.2981 17.2659 32.4762 16.9584 32.4072 16.1624C32.5078 15.3204 33.255 14.7858 33.712 14.1278Z" fill="white"/>
<path d="M50.832 14.2157C51.858 13.549 53.0966 14.8278 52.473 15.8537C51.8378 16.5319 50.967 16.9687 50.1537 17.3998C49.1565 17.7044 48.2857 16.552 48.7398 15.6468C49.3462 15.0548 50.0991 14.6381 50.832 14.2157Z" fill="white"/>
<path d="M18.6532 15.437C19.228 15.2128 19.7539 15.6525 20.2597 15.868C20.8431 16.21 21.7484 16.4945 21.7541 17.3107C21.8604 18.0866 21.0098 18.7935 20.2626 18.5464C19.5815 18.2877 18.9348 17.9371 18.317 17.5521C17.4864 17.0836 17.7393 15.6525 18.6532 15.437Z" fill="white"/>
<path d="M21.3174 23.8382C21.7284 23.4646 22.237 23.0307 22.8377 23.1543C23.8033 23.1715 24.3091 24.548 23.5533 25.1659C21.7945 26.9677 19.9408 28.6776 18.1763 30.4737C17.5526 30.9536 18.0843 32.0658 18.8229 31.9594C19.2022 31.9882 19.435 31.6347 19.6994 31.4249C21.464 29.7093 23.1854 27.9448 24.9902 26.2752C25.6253 25.6631 26.726 26.2838 26.703 27.1086C26.795 27.531 26.4214 27.8327 26.1829 28.1172C24.4413 29.8386 22.6279 31.4968 20.938 33.2699C20.1765 34.1521 21.5617 35.4252 22.4037 34.6608C24.266 32.9624 25.9846 31.1031 27.8583 29.419C28.8584 28.7179 30.2695 30.3703 29.3211 31.2036C27.1542 33.4538 24.8753 35.5976 22.7055 37.8506C21.5301 39.0576 20.0443 40.2128 18.2711 40.1755C17.3543 40.2559 16.5151 39.8479 15.7363 39.4168C12.3624 43.0636 8.95973 46.6874 5.58005 50.3313C4.98228 50.998 4.25232 51.6963 3.2867 51.6618C2.03656 51.7365 1.00484 50.7164 0.726074 49.5582V49.0582C0.999092 47.8168 2.12853 47.1069 2.98494 46.2822C6.39336 43.1642 9.79603 40.0404 13.1872 36.9052C12.7906 36.1723 12.3394 35.4108 12.3681 34.5458C12.3337 32.7095 13.5608 31.1778 14.7966 29.9536C16.952 27.896 19.1706 25.9045 21.3174 23.8382Z" fill="#AFBE59"/>
<path d="M51.9759 23.4537C52.7834 23.2411 53.6427 23.3014 54.4704 23.3158C55.3498 23.3819 55.7694 24.5975 55.1975 25.2412C54.7578 25.8418 53.9359 25.6579 53.295 25.7355C52.7145 25.7125 51.9845 25.8878 51.5534 25.3849C50.9729 24.813 51.2028 23.7238 51.9759 23.4537Z" fill="white"/>
<path d="M48.829 28.4213C51.0908 27.5879 53.5393 28.5391 55.3642 29.9214C58.0599 32.0163 60.1751 35.1114 60.5114 38.5685C60.678 39.899 60.2125 41.2152 59.4394 42.2842C62.6093 46.3764 65.7447 50.4974 68.9203 54.5867C69.521 55.3282 70.1101 56.1242 70.2739 57.0898V57.3886C70.1072 58.3801 69.3227 59.3284 68.2536 59.3198C67.1787 59.3658 66.3309 58.5812 65.7504 57.7651C62.5863 53.3826 59.4078 49.0145 56.2322 44.6407C52.9099 44.7844 49.9987 42.5687 48.2255 39.9249C46.6909 37.6748 45.5844 34.9476 45.869 32.183C46.0471 30.4904 47.2024 28.9616 48.829 28.4213Z" fill="#AFBE59"/>
<path d="M43.4721 39.9643C42.9519 38.9585 44.4291 37.7889 45.2711 38.5648C45.866 39.1597 46.2712 39.9241 46.6678 40.6626C46.9006 41.111 46.573 41.565 46.4293 41.9817C46.1304 42.1024 45.8344 42.226 45.5384 42.3553C44.4435 42.0191 43.9951 40.8696 43.4721 39.9643Z" fill="white"/>
<path d="M35.8935 40.9957C36.5573 40.8204 37.3534 41.3291 37.3678 42.0475C37.4454 42.9815 37.8333 44.2172 36.9683 44.9011C36.2843 45.5046 35.0687 44.9184 35.0773 44.0189C35.06 43.0016 34.5686 41.3923 35.8935 40.9957Z" fill="white"/>
<path d="M19.7339 44.858C20.8202 44.631 21.8807 44.266 22.8578 43.7344C29.6459 48.4128 39.0291 48.9301 46.2454 44.9155C46.915 45.6282 47.6593 46.269 48.4497 46.8495C43.633 49.6342 37.914 50.9475 32.3789 50.1831C27.7664 49.6399 23.378 47.7145 19.7339 44.858Z" fill="white"/>
</svg>
