<svg width="26" height="22" viewBox="0 0 26 22" fill="none" xmlns="http://www.w3.org/2000/svg">
<path d="M19.25 16L24.25 11M24.25 11L19.25 6M24.25 11H6.75M14.25 16V17.25C14.25 18.2446 13.8549 19.1984 13.1517 19.9017C12.4484 20.6049 11.4946 21 10.5 21H5.5C4.50544 21 3.55161 20.6049 2.84835 19.9017C2.14509 19.1984 1.75 18.2446 1.75 17.25V4.75C1.75 3.75544 2.14509 2.80161 2.84835 2.09835C3.55161 1.39509 4.50544 1 5.5 1H10.5C11.4946 1 12.4484 1.39509 13.1517 2.09835C13.8549 2.80161 14.25 3.75544 14.25 4.75V6" stroke="#282828" stroke-width="2" stroke-linecap="round" stroke-linejoin="round"/>
</svg>
