<svg width="20" height="15" viewBox="0 0 20 15" fill="none" xmlns="http://www.w3.org/2000/svg">
<path d="M1.11111 14.25H18.8889C19.5 14.25 20 13.7344 20 13.1042C20 12.474 19.5 11.9583 18.8889 11.9583H1.11111C0.5 11.9583 0 12.474 0 13.1042C0 13.7344 0.5 14.25 1.11111 14.25ZM1.11111 8.52083H18.8889C19.5 8.52083 20 8.00521 20 7.375C20 6.74479 19.5 6.22917 18.8889 6.22917H1.11111C0.5 6.22917 0 6.74479 0 7.375C0 8.00521 0.5 8.52083 1.11111 8.52083ZM0 1.64583C0 2.27604 0.5 2.79167 1.11111 2.79167H18.8889C19.5 2.79167 20 2.27604 20 1.64583C20 1.01562 19.5 0.5 18.8889 0.5H1.11111C0.5 0.5 0 1.01562 0 1.64583Z" fill="#282828"/>
</svg>
